<svg width="357" height="357" viewBox="0 0 357 357" fill="none" xmlns="http://www.w3.org/2000/svg">
<path d="M47.8014 34.5151L147.531 4.9294C151.973 3.6116 156.539 6.53021 157.729 11.4479L198.244 178.852C199.434 183.77 196.798 188.825 192.356 190.143L92.6263 219.729C88.1846 221.046 83.6188 218.128 82.4285 213.21L41.9133 45.8056C40.7235 40.888 43.3592 35.8329 47.8014 34.5151V34.5151Z" fill="white"/>
<path d="M104.721 137.218C112.104 141.937 121.348 139.852 126.532 132.722C134.241 136.027 143.187 132.716 147.45 124.542C152.161 115.507 149.365 103.953 141.205 98.737L114.116 81.4217L98.4762 111.413C93.7647 120.448 96.5607 132.001 104.721 137.218Z" fill="#6D92AC"/>
<path d="M134.884 39.6439H238.132C242.73 39.6439 246.458 43.771 246.458 48.8625V222.172C246.458 227.264 242.73 231.391 238.132 231.391H134.884C130.285 231.391 126.557 227.264 126.557 222.172V48.8625C126.557 43.771 130.285 39.6439 134.884 39.6439V39.6439Z" fill="white"/>
<path d="M208.626 116.119C202.598 109.445 193.182 108.81 186.508 114.211C179.834 108.809 170.418 109.444 164.39 116.119C157.727 123.496 157.727 135.457 164.39 142.834L186.508 167.322L208.626 142.834C215.289 135.457 215.289 123.496 208.626 116.119V116.119Z" fill="#FF7D97"/>
<path d="M76.3018 47.2446C75.2876 45.7069 73.5232 45.0178 71.8621 45.5106C70.201 46.0033 68.9841 47.5765 68.8005 49.47L66.1277 76.9852C65.8821 79.5162 67.5357 81.7886 69.8221 82.061C69.9733 82.079 70.1235 82.0877 70.2722 82.0877C72.3717 82.0877 74.1769 80.3343 74.4067 77.9707L75.9279 62.3087L84.318 75.0304C85.674 77.0862 88.2789 77.536 90.1357 76.0348C91.9925 74.5335 92.3988 71.65 91.0429 69.5937L76.3018 47.2446Z" fill="black"/>
<path d="M238.132 35.0345H167.747L161.75 10.2549C160.886 6.68728 158.82 3.70552 155.931 1.85858C153.042 0.0116273 149.677 -0.478803 146.453 0.477167L46.7235 30.0629C43.5012 31.0189 40.808 33.3069 39.1398 36.5058C37.472 39.7042 37.0286 43.4308 37.8921 46.9989L78.4068 214.403C79.2703 217.971 81.3369 220.953 84.2262 222.8C86.1508 224.03 88.2862 224.658 90.4506 224.658C91.5351 224.658 92.6276 224.5 93.7033 224.181L122.394 215.67V222.172C122.394 229.797 127.997 236 134.884 236H238.132C245.018 236 250.621 229.797 250.621 222.172V156.259C250.621 153.714 248.757 151.65 246.458 151.65C244.159 151.65 242.295 153.714 242.295 156.259V222.172C242.295 224.714 240.427 226.782 238.132 226.782H134.884C132.588 226.782 130.721 224.714 130.721 222.172V48.8624C130.721 46.3209 132.588 44.2531 134.884 44.2531H238.132C240.427 44.2531 242.295 46.3209 242.295 48.8624V114.775C242.295 117.321 244.159 119.385 246.458 119.385C248.757 119.385 250.621 117.321 250.621 114.775V48.8624C250.621 41.2377 245.018 35.0345 238.132 35.0345V35.0345ZM122.394 130.932C118.339 135.436 111.869 136.464 106.803 133.226C100.643 129.288 98.5256 120.537 102.082 113.718L115.64 87.7184L122.394 92.0359V130.932ZM122.394 48.8624V81.3907L116.198 77.43C114.206 76.1564 111.66 76.9123 110.511 79.117L94.8711 109.108C92.0364 114.544 91.2833 120.877 92.7508 126.94C94.2179 133.003 97.7304 138.07 102.64 141.209C106.002 143.358 109.673 144.395 113.3 144.395C116.442 144.395 119.55 143.614 122.394 142.104V206.126L91.5485 215.277C90.4743 215.595 89.3524 215.432 88.3894 214.816C87.4265 214.201 86.7374 213.207 86.4498 212.018L45.935 44.6126C45.3409 42.1577 46.6615 39.6254 48.8788 38.9672L148.609 9.38142C149.682 9.06292 150.804 9.22655 151.768 9.84189C152.731 10.4572 153.42 11.4515 153.707 12.6407L159.127 35.0341H134.884C127.997 35.0345 122.394 41.2377 122.394 48.8624V48.8624Z" fill="black"/>
<path d="M166.069 91.8797C168.214 90.9616 169.28 88.2928 168.451 85.9185L159.437 60.1064C158.817 58.33 157.274 57.1592 155.554 57.1592C153.834 57.1592 152.291 58.33 151.671 60.1064L142.658 85.9185C141.828 88.2928 142.895 90.9616 145.04 91.8797C145.533 92.0913 146.04 92.1913 146.54 92.1913C148.21 92.1913 149.786 91.0708 150.424 89.2427L155.554 74.5506L160.685 89.2427C161.514 91.617 163.925 92.7988 166.069 91.8797V91.8797Z" fill="black"/>
<path d="M213.578 210.928C214.198 212.704 215.741 213.876 217.461 213.876C219.181 213.876 220.724 212.705 221.344 210.928L230.357 185.116C231.187 182.742 230.12 180.073 227.975 179.155C225.831 178.238 223.42 179.418 222.591 181.792L217.461 196.484L212.33 181.792C211.501 179.418 209.09 178.236 206.946 179.155C204.801 180.073 203.735 182.742 204.564 185.116L213.578 210.928Z" fill="black"/>
<path d="M183.564 170.581C184.377 171.481 185.442 171.931 186.508 171.931C187.573 171.931 188.639 171.481 189.452 170.581L211.569 146.093C219.845 136.931 219.845 122.022 211.569 112.859V112.859C204.815 105.381 194.674 103.863 186.508 108.768C178.342 103.864 168.2 105.382 161.446 112.859C153.17 122.021 153.17 136.93 161.446 146.093L183.564 170.581ZM167.334 119.378C169.815 116.63 173.144 115.221 176.484 115.221C179.139 115.221 181.802 116.113 184.051 117.932C185.514 119.116 187.501 119.116 188.964 117.932C194.04 113.825 201.227 114.446 205.681 119.377C210.711 124.946 210.711 134.006 205.681 139.574L186.507 160.803L167.333 139.574C162.304 134.006 162.304 124.946 167.334 119.378Z" fill="black"/>
<path d="M246.458 130.908C245.363 130.908 244.289 131.401 243.515 132.259C242.74 133.116 242.295 134.305 242.295 135.517C242.295 136.73 242.74 137.919 243.515 138.776C244.289 139.634 245.363 140.127 246.458 140.127C247.553 140.127 248.627 139.634 249.401 138.776C250.176 137.919 250.621 136.73 250.621 135.517C250.621 134.305 250.176 133.116 249.401 132.259C248.627 131.401 247.553 130.908 246.458 130.908V130.908Z" fill="black"/>
<path d="M24.408 328C36.576 328 43.056 320.584 44.64 309.064C45.144 305.608 45.216 303.52 45.216 299.992C45 287.392 40.896 274 23.832 274H6.408V328H24.408ZM14.112 280.264L23.976 280.48C31.68 280.48 35.136 284.656 36.504 292.072C37.152 294.088 37.44 296.752 37.584 299.848C38.232 316.552 33.696 323.248 23.328 322.312C19.944 321.448 16.776 321.52 14.112 321.52V280.264ZM76.1299 315.544C76.2739 319.864 74.3299 324.472 68.4979 323.968C68.4979 323.68 68.6419 323.608 68.7859 323.608C62.9539 323.608 61.0099 318.496 60.6499 313.312C61.0099 311.872 61.5139 310.288 61.9459 309.28H83.3299C83.1859 305.464 82.9699 301.36 81.8179 297.904C80.0899 292.072 76.6339 287.464 68.2819 287.464C61.5859 287.464 57.6979 292.072 55.3219 297.616C53.7379 301.216 53.0899 305.392 53.0899 308.92C53.0899 315.256 54.3139 319.504 56.2579 322.312C59.2819 327.352 63.5299 329.152 68.4259 329.152C74.9779 329.152 79.4419 325.696 81.6019 320.44C82.3219 319 82.7539 317.344 82.8259 315.544H76.1299ZM61.1539 304.096C61.0099 303.304 60.7939 302.224 60.7219 301.216C60.8659 299.848 61.2259 298.552 61.7299 297.472C62.8099 295.024 64.8259 293.008 68.4979 293.008C71.9539 293.008 73.8259 295.096 74.9059 297.544C75.7699 299.56 75.7699 302.224 75.9139 304.096H61.1539ZM101.305 328H109.009C113.473 314.896 117.865 301.72 122.329 288.616H115.057C113.041 296.176 111.169 301.576 109.153 309.136C107.929 313.456 106.633 317.848 105.337 322.168H105.265C103.177 315.256 101.017 308.344 99.0726 301.504C97.8486 297.256 96.6246 292.936 95.4006 288.616H87.9846C92.4486 301.72 96.9126 314.896 101.305 328ZM147.806 328C159.974 328 166.454 320.584 168.038 309.064C168.542 305.608 168.614 303.52 168.614 299.992C168.398 287.392 164.294 274 147.23 274H129.806V328H147.806ZM137.51 280.264L147.374 280.48C155.078 280.48 158.534 284.656 159.902 292.072C160.55 294.088 160.838 296.752 160.982 299.848C161.63 316.552 157.094 323.248 146.726 322.312C143.342 321.448 140.174 321.52 137.51 321.52V280.264ZM199.528 315.544C199.672 319.864 197.728 324.472 191.896 323.968C191.896 323.68 192.04 323.608 192.184 323.608C186.352 323.608 184.408 318.496 184.048 313.312C184.408 311.872 184.912 310.288 185.344 309.28H206.728C206.584 305.464 206.368 301.36 205.216 297.904C203.488 292.072 200.032 287.464 191.68 287.464C184.984 287.464 181.096 292.072 178.72 297.616C177.136 301.216 176.488 305.392 176.488 308.92C176.488 315.256 177.712 319.504 179.656 322.312C182.68 327.352 186.928 329.152 191.824 329.152C198.376 329.152 202.84 325.696 205 320.44C205.72 319 206.152 317.344 206.224 315.544H199.528ZM184.552 304.096C184.408 303.304 184.192 302.224 184.12 301.216C184.264 299.848 184.624 298.552 185.128 297.472C186.208 295.024 188.224 293.008 191.896 293.008C195.352 293.008 197.224 295.096 198.304 297.544C199.168 299.56 199.168 302.224 199.312 304.096H184.552ZM230.607 293.512C235.647 293.728 237.015 297.4 237.087 301.144H243.999C243.927 299.128 243.423 297.328 242.559 295.744C240.399 290.848 236.151 287.464 229.887 287.464C223.119 287.464 218.943 290.632 216.351 295.24C214.119 299.128 213.615 304.168 213.615 308.848C213.615 313.96 214.263 318.928 216.567 322.384C219.231 326.56 223.407 329.152 230.031 329.152C235.647 329.152 239.391 326.632 241.911 322.888C243.423 320.512 244.143 317.56 244.287 314.32H237.375C237.231 316.048 236.799 317.632 235.647 318.568C234.927 321.16 233.415 323.464 229.599 323.464C225.567 323.464 223.407 320.8 222.255 317.704C221.103 315.184 221.031 311.872 221.031 309.496C221.031 306.112 221.103 300.208 223.839 297.256C225.279 295.024 227.295 293.296 230.607 293.512ZM259.958 328V315.688C261.542 313.672 263.126 311.584 264.71 309.496C268.31 315.688 271.91 321.88 275.51 328H284.15C279.254 319.864 274.286 311.656 269.318 303.448C274.07 298.552 278.822 293.584 283.502 288.616H274.79C269.894 294.376 264.926 300.208 260.03 305.968H259.958V274H252.83V328H259.958ZM315.66 298.624C315.588 297.112 315.372 295.816 314.868 294.808C312.852 289.48 307.956 287.464 301.404 287.464C295.716 287.464 290.748 290.128 288.804 295.024C288.3 296.248 288.012 297.688 288.012 299.2V298.768C288.012 313.96 308.82 307.768 309.684 317.272C309.828 317.128 309.972 316.984 309.972 316.912C309.972 318.352 309.756 319.72 309.108 320.872C307.956 322.96 305.508 323.968 302.196 324.4C296.364 324.904 294.276 322.024 294.492 317.056H287.652C287.796 323.392 292.98 329.368 301.692 329.152C308.964 329.224 314.076 326.272 316.308 321.304C317.028 319.864 317.388 318.28 317.388 316.48C317.388 315.256 317.172 314.32 316.74 313.528C315.156 308.416 310.044 307.912 304.212 306.256C302.412 305.752 300.828 305.392 299.604 304.816C297.228 303.808 295.428 302.296 295.716 298.912C295.716 294.736 298.092 292.72 302.268 292.432C307.164 292.144 308.964 294.088 308.748 298.624H315.66Z" fill="black"/>
</svg>
